<?xml version="1.0" encoding="utf-8"?>
<!-- Generator: Adobe Illustrator 27.2.0, SVG Export Plug-In . SVG Version: 6.00 Build 0)  -->
<svg version="1.1" id="Layer_1" xmlns="http://www.w3.org/2000/svg" xmlns:xlink="http://www.w3.org/1999/xlink" x="0px" y="0px"
	 viewBox="0 0 256 290.2" style="enable-background:new 0 0 256 290.2;" xml:space="preserve">
<style type="text/css">
	.st0{fill:#264DE4;}
	.st1{fill:#2965F1;}
	.st2{fill:#EBEBEB;}
	.st3{fill:#FFFFFF;}
</style>
<g>
	<path class="st0" d="M127.8,289.3L23.7,260.4L0.4,0h255.1l-23.2,260.4L127.8,289.3L127.8,289.3z"/>
	<path class="st1" d="M212.4,243.8l19.9-222.5H128v245.9L212.4,243.8L212.4,243.8z"/>
	<path class="st2" d="M53.7,117.9l2.9,31.9H128v-31.9H53.7L53.7,117.9z"/>
	<path class="st2" d="M47.9,53.2l2.9,31.9H128V53.2H47.9L47.9,53.2z"/>
	<path class="st2" d="M128,200.8l-0.1,0l-35.6-9.6L90,165.8H58l4.5,50.1l65.4,18.2l0.1,0V200.8L128,200.8z"/>
	<path class="st3" d="M202.1,117.9l5.8-64.6h-80v31.9h45l-2.9,32.7h-42.1v31.9h39.3l-3.7,41.4l-35.6,9.6v33.2l65.5-18.1l0.5-5.4
		l7.5-84.1L202.1,117.9L202.1,117.9z"/>
</g>
</svg>
