<?xml version="1.0" encoding="utf-8"?>
<!-- Generator: Adobe Illustrator 27.2.0, SVG Export Plug-In . SVG Version: 6.00 Build 0)  -->
<svg version="1.1" id="Layer_1" xmlns="http://www.w3.org/2000/svg" xmlns:xlink="http://www.w3.org/1999/xlink" x="0px" y="0px"
	 viewBox="0 0 256 274.5" style="enable-background:new 0 0 256 274.5;" xml:space="preserve">
<style type="text/css">
	.st0{fill:#01EC64;}
</style>
<g>
	<path class="st0" d="M155.2,30.7C142,17.1,130.7,3.2,128.4,0.3c-0.2-0.2-0.6-0.2-0.9,0c-2.3,2.9-13.6,16.7-26.7,30.4
		c-112.6,125.9,17.7,210.9,17.7,210.9l1.1,0.6c1,13.1,3.4,32,3.4,32h4.9h4.9c0,0,2.4-18.8,3.4-32l1.1-0.7
		C137.4,241.7,267.8,156.7,155.2,30.7z M127.9,239.8c0,0-5.8-4.4-7.4-6.6v-0.2l7-137.1c0-0.4,0.7-0.4,0.7,0l7,137.1v0.2
		C133.8,235.4,127.9,239.8,127.9,239.8z"/>
</g>
</svg>
